<?xml version="1.0" encoding="UTF-8"?>
<svg id="_Слой_2" data-name="Слой 2" xmlns="http://www.w3.org/2000/svg" viewBox="0 0 313.08 43.27">
  <g id="Layer_1" data-name="Layer 1">
    <g>
      <path d="m22.29,0C11.23,0,0,9.69,0,21.64s9.98,21.64,22.29,21.64h10.14v-7.03l-3.81-3.7h-6.33s-11.23-1.23-11.23-10.9,11.23-10.9,11.23-10.9h4.74l7.19,6.98v25.56h11.06V13.27L31.6,0h-9.32Z"/>
      <path d="m117.21,0C106.15,0,94.92,9.69,94.92,21.64s9.98,21.64,22.29,21.64h10.14v-7.03l-3.81-3.7h-6.33s-11.23-1.23-11.23-10.9,11.23-10.9,11.23-10.9h4.74l7.19,6.98v25.56h11.06V13.27L126.53,0h-9.32Z"/>
      <path d="m299.41,0h-9.32c-11.05,0-22.29,9.69-22.29,21.64s9.98,21.64,22.29,21.64h10.14v-7.03l-3.81-3.7h-6.33s-11.23-1.23-11.23-10.9,11.23-10.9,11.23-10.9h4.74l7.19,6.98v25.56h11.06V13.27L299.41,0Z"/>
      <path d="m210.71,0C199.66,0,188.42,9.69,188.42,21.64s9.98,21.64,22.29,21.64h10.14v-7.03l-3.81-3.7h-6.33s-11.23-1.23-11.23-10.9,11.23-10.9,11.23-10.9h4.74l7.19,6.98v25.56h11.06V13.27L220.03,0h-9.32Z"/>
      <path d="m58.42,11.06h21.33c3.8,0,3.54,3.15,3.54,3.15v4.31h11.06v-7.58S94.97,0,85.1,0h-37.74v24.84h0l4.43,2.97h-4.44v7.49h11.06v-3.06l16.64,11.03h19.86s-36.5-24.33-36.5-24.33v-7.88Z"/>
      <polygon points="282.25 0 262.39 0 245.75 11.03 245.75 0 234.7 0 234.7 24.84 234.7 24.84 239.14 27.81 234.7 27.81 234.7 35.3 245.75 35.3 245.75 32.25 262.39 43.27 282.25 43.27 249.8 21.64 282.25 0"/>
      <path d="m161.68,11.72h-19.86s30.74,20.5,30.74,20.5h-15.58c-3.8,0-3.54-3.15-3.54-3.15v-4.31h-11.06v7.58s-.62,10.93,9.24,10.93h37.74v-13.12s-27.69-18.43-27.69-18.43Z"/>
      <polygon points="184.88 7.8 175.02 .02 161.71 .02 161.71 11.65 184.88 11.65 184.88 7.8"/>
    </g>
  </g>
</svg>