<?xml version="1.0" encoding="UTF-8"?>
<svg id="_Слой_2" data-name="Слой 2" xmlns="http://www.w3.org/2000/svg" viewBox="0 0 132.52 132.52">
  <defs>
    <style>
      .cls-1 {
        fill: #c41e25;
      }
    </style>
  </defs>
  <g id="Layer_1" data-name="Layer 1">
    <g>
      <path class="cls-1" d="m66.26,0C29.67,0,0,29.67,0,66.26s29.67,66.26,66.26,66.26,66.26-29.67,66.26-66.26S102.85,0,66.26,0Zm0,123.33c-31.52,0-57.07-25.55-57.07-57.07S34.74,9.19,66.26,9.19s57.07,25.55,57.07,57.07-25.55,57.07-57.07,57.07Z"/>
      <path class="cls-1" d="m100.22,40.12c-11.49,0-20.81,9.32-20.81,20.81,0,3.89,1.07,7.53,2.93,10.64l-10.95,10.95v-30.08c9.02-2.28,15.69-10.45,15.69-20.17,0-11.49-9.32-20.81-20.81-20.81s-20.81,9.32-20.81,20.81c0,9.72,6.67,17.89,15.69,20.17v30.12l-10.97-10.97c1.87-3.12,2.94-6.77,2.94-10.67,0-11.49-9.32-20.81-20.81-20.81s-20.81,9.32-20.81,20.81,9.32,20.81,20.81,20.81c3.88,0,7.5-1.06,10.61-2.91l18.22,18.22v24.05c1.69.15,3.39.23,5.12.23s3.43-.08,5.12-.23v-24.1l18.19-18.19c3.11,1.86,6.75,2.93,10.64,2.93,11.49,0,20.81-9.32,20.81-20.81s-9.32-20.81-20.81-20.81Z"/>
    </g>
  </g>
</svg>